<svg width="319" height="48" viewBox="0 0 319 48" fill="none" xmlns="http://www.w3.org/2000/svg">
<path d="M25.28 36.5312H10.9987L7.905 47H0.0924988L14.905 1.5H21.5612L36.1237 47H28.3425L25.28 36.5312ZM12.905 30.0938H23.4362L18.2175 12.0938L12.905 30.0938ZM73.1375 1.5L73.1687 31.9375C73.1687 34.2917 72.8042 36.4375 72.075 38.375C71.3667 40.2917 70.3562 41.9375 69.0437 43.3125C67.7104 44.6875 66.1062 45.75 64.2312 46.5C62.3771 47.25 60.2937 47.625 57.9812 47.625C55.7104 47.625 53.6583 47.2604 51.825 46.5312C49.9917 45.7812 48.4292 44.7188 47.1375 43.3438C45.825 41.9688 44.8042 40.3125 44.075 38.375C43.3667 36.4375 43.0021 34.2917 42.9812 31.9375L43.0437 1.5H50.45L50.5125 31.9375C50.5333 33.375 50.7104 34.6979 51.0437 35.9062C51.3771 37.0938 51.8667 38.1042 52.5125 38.9375C53.1375 39.7292 53.8979 40.3542 54.7937 40.8125C55.7104 41.25 56.7729 41.4688 57.9812 41.4688C59.2104 41.4688 60.2937 41.25 61.2312 40.8125C62.1896 40.3542 62.9917 39.7083 63.6375 38.875C64.2833 38.0208 64.7729 37.0104 65.1062 35.8438C65.4396 34.6562 65.6271 33.3542 65.6687 31.9375L65.7312 1.5H73.1375ZM116.182 7.71875H102.151V47H94.6825V7.71875H80.745V1.5H116.182V7.71875ZM155.103 27.2812C155.103 29.1146 154.936 30.8854 154.603 32.5938C154.29 34.3021 153.832 35.9167 153.228 37.4375C152.582 38.9583 151.78 40.3646 150.821 41.6562C149.863 42.9271 148.759 44.0208 147.509 44.9375C146.3 45.7708 144.957 46.4271 143.478 46.9062C142.019 47.3854 140.415 47.625 138.665 47.625C136.853 47.625 135.186 47.375 133.665 46.875C132.165 46.3542 130.821 45.6458 129.634 44.75C128.425 43.8333 127.363 42.7292 126.446 41.4375C125.55 40.1458 124.8 38.7292 124.196 37.1875C123.613 35.7083 123.175 34.1354 122.884 32.4688C122.592 30.7812 122.446 29.0521 122.446 27.2812V21.2812C122.446 19.4271 122.603 17.6354 122.915 15.9062C123.228 14.1771 123.696 12.5417 124.321 11C124.925 9.52083 125.665 8.16667 126.54 6.9375C127.436 5.6875 128.488 4.60417 129.696 3.6875C130.863 2.79167 132.186 2.10417 133.665 1.625C135.165 1.125 136.811 0.875 138.603 0.875C140.415 0.875 142.082 1.125 143.603 1.625C145.123 2.125 146.488 2.82292 147.696 3.71875C148.905 4.61458 149.957 5.66667 150.853 6.875C151.748 8.08333 152.498 9.40625 153.103 10.8438C153.769 12.3854 154.269 14.0417 154.603 15.8125C154.936 17.5625 155.103 19.3854 155.103 21.2812V27.2812ZM147.54 21.2188C147.519 20.0729 147.446 18.9479 147.321 17.8438C147.217 16.7396 147.03 15.6875 146.759 14.6875C146.446 13.5417 146.03 12.5 145.509 11.5625C145.009 10.6042 144.394 9.79167 143.665 9.125C143.019 8.54167 142.28 8.08333 141.446 7.75C140.613 7.41667 139.665 7.25 138.603 7.25C137.582 7.25 136.665 7.41667 135.853 7.75C135.04 8.0625 134.332 8.5 133.728 9.0625C132.998 9.75 132.384 10.5729 131.884 11.5312C131.384 12.4688 130.998 13.5208 130.728 14.6875C130.478 15.6875 130.29 16.75 130.165 17.875C130.061 18.9792 130.009 20.0938 130.009 21.2188V27.2812C130.009 28.3854 130.061 29.4792 130.165 30.5625C130.269 31.6458 130.446 32.6875 130.696 33.6875C130.967 34.8125 131.332 35.8646 131.79 36.8438C132.269 37.8021 132.842 38.6146 133.509 39.2812C134.155 39.9062 134.894 40.4062 135.728 40.7812C136.582 41.1354 137.561 41.3125 138.665 41.3125C139.728 41.3125 140.686 41.1354 141.54 40.7812C142.415 40.4271 143.165 39.9479 143.79 39.3438C144.519 38.6562 145.123 37.8438 145.603 36.9062C146.103 35.9479 146.498 34.8958 146.79 33.75C147.04 32.75 147.217 31.7083 147.321 30.625C147.446 29.5208 147.519 28.4062 147.54 27.2812V21.2188ZM188.335 35.2812C188.335 34.2188 188.116 33.2812 187.679 32.4688C187.241 31.6562 186.627 30.9271 185.835 30.2812C185.002 29.6771 184.012 29.1354 182.866 28.6562C181.741 28.1562 180.481 27.7083 179.085 27.3125C176.939 26.7083 174.96 25.9688 173.147 25.0938C171.356 24.1979 169.825 23.1979 168.554 22.0938C167.283 20.9688 166.283 19.6979 165.554 18.2812C164.845 16.8438 164.491 15.2292 164.491 13.4375C164.491 11.5 164.908 9.76042 165.741 8.21875C166.575 6.65625 167.7 5.32292 169.116 4.21875C170.533 3.13542 172.179 2.3125 174.054 1.75C175.95 1.16667 177.939 0.875 180.022 0.875C182.231 0.875 184.283 1.21875 186.179 1.90625C188.095 2.57292 189.762 3.51042 191.179 4.71875C192.595 5.94792 193.71 7.41667 194.522 9.125C195.356 10.8125 195.772 12.6875 195.772 14.75H188.335C188.231 13.6042 187.981 12.5625 187.585 11.625C187.21 10.6667 186.679 9.84375 185.991 9.15625C185.283 8.48958 184.418 7.96875 183.397 7.59375C182.397 7.19792 181.241 7 179.929 7C178.783 7 177.72 7.15625 176.741 7.46875C175.783 7.76042 174.95 8.17708 174.241 8.71875C173.533 9.28125 172.981 9.95833 172.585 10.75C172.189 11.5417 171.991 12.4271 171.991 13.4062C172.012 14.4479 172.283 15.3646 172.804 16.1562C173.325 16.9271 174.022 17.6042 174.897 18.1875C175.793 18.7708 176.814 19.2812 177.96 19.7188C179.127 20.1562 180.345 20.5625 181.616 20.9375C183.22 21.3958 184.783 21.9688 186.304 22.6562C187.845 23.3229 189.262 24.1354 190.554 25.0938C192.158 26.3021 193.439 27.75 194.397 29.4375C195.377 31.1042 195.866 33.0312 195.866 35.2188C195.866 37.2396 195.439 39.0208 194.585 40.5625C193.752 42.1042 192.627 43.3854 191.21 44.4062C189.772 45.4688 188.106 46.2708 186.21 46.8125C184.314 47.3333 182.314 47.5938 180.21 47.5938C177.981 47.5938 175.783 47.25 173.616 46.5625C171.45 45.8542 169.564 44.8333 167.96 43.5C166.481 42.25 165.304 40.7812 164.429 39.0938C163.575 37.4062 163.137 35.4688 163.116 33.2812H170.616C170.72 34.6771 171.012 35.8958 171.491 36.9375C171.991 37.9583 172.668 38.8021 173.522 39.4688C174.356 40.1562 175.335 40.6667 176.46 41C177.606 41.3333 178.856 41.5 180.21 41.5C181.356 41.5 182.418 41.3646 183.397 41.0938C184.397 40.8229 185.262 40.4167 185.991 39.875C186.7 39.3542 187.262 38.7083 187.679 37.9375C188.116 37.1667 188.335 36.2812 188.335 35.2812ZM234.38 47H227.036V26.7188H211.724V47H204.411V1.5H211.724V20.5312H227.036V1.5H234.38V47ZM276.175 27.2812C276.175 29.1146 276.008 30.8854 275.675 32.5938C275.363 34.3021 274.904 35.9167 274.3 37.4375C273.654 38.9583 272.852 40.3646 271.894 41.6562C270.935 42.9271 269.831 44.0208 268.581 44.9375C267.373 45.7708 266.029 46.4271 264.55 46.9062C263.092 47.3854 261.488 47.625 259.738 47.625C257.925 47.625 256.258 47.375 254.738 46.875C253.238 46.3542 251.894 45.6458 250.706 44.75C249.498 43.8333 248.435 42.7292 247.519 41.4375C246.623 40.1458 245.873 38.7292 245.269 37.1875C244.685 35.7083 244.248 34.1354 243.956 32.4688C243.665 30.7812 243.519 29.0521 243.519 27.2812V21.2812C243.519 19.4271 243.675 17.6354 243.988 15.9062C244.3 14.1771 244.769 12.5417 245.394 11C245.998 9.52083 246.738 8.16667 247.613 6.9375C248.508 5.6875 249.56 4.60417 250.769 3.6875C251.935 2.79167 253.258 2.10417 254.738 1.625C256.238 1.125 257.883 0.875 259.675 0.875C261.488 0.875 263.154 1.125 264.675 1.625C266.196 2.125 267.56 2.82292 268.769 3.71875C269.977 4.61458 271.029 5.66667 271.925 6.875C272.821 8.08333 273.571 9.40625 274.175 10.8438C274.842 12.3854 275.342 14.0417 275.675 15.8125C276.008 17.5625 276.175 19.3854 276.175 21.2812V27.2812ZM268.613 21.2188C268.592 20.0729 268.519 18.9479 268.394 17.8438C268.29 16.7396 268.102 15.6875 267.831 14.6875C267.519 13.5417 267.102 12.5 266.581 11.5625C266.081 10.6042 265.467 9.79167 264.738 9.125C264.092 8.54167 263.352 8.08333 262.519 7.75C261.685 7.41667 260.738 7.25 259.675 7.25C258.654 7.25 257.738 7.41667 256.925 7.75C256.113 8.0625 255.404 8.5 254.8 9.0625C254.071 9.75 253.456 10.5729 252.956 11.5312C252.456 12.4688 252.071 13.5208 251.8 14.6875C251.55 15.6875 251.363 16.75 251.238 17.875C251.133 18.9792 251.081 20.0938 251.081 21.2188V27.2812C251.081 28.3854 251.133 29.4792 251.238 30.5625C251.342 31.6458 251.519 32.6875 251.769 33.6875C252.04 34.8125 252.404 35.8646 252.863 36.8438C253.342 37.8021 253.915 38.6146 254.581 39.2812C255.227 39.9062 255.967 40.4062 256.8 40.7812C257.654 41.1354 258.633 41.3125 259.738 41.3125C260.8 41.3125 261.758 41.1354 262.613 40.7812C263.488 40.4271 264.238 39.9479 264.863 39.3438C265.592 38.6562 266.196 37.8438 266.675 36.9062C267.175 35.9479 267.571 34.8958 267.863 33.75C268.113 32.75 268.29 31.7083 268.394 30.625C268.519 29.5208 268.592 28.4062 268.613 27.2812V21.2188ZM288.408 47L282.47 1.5H289.439L292.564 29.4375L292.783 31.2188L293.095 29.3438L297.47 1.5H303.22L307.751 29.4688L308.064 31.3438L308.283 29.4375L311.439 1.5H318.439L312.439 47H305.345L300.72 19.1562L300.408 17L300.064 19.1562L295.501 47H288.408Z" fill="white"/>
</svg>
